<svg version="1.1" xmlns="http://www.w3.org/2000/svg" width="80" height="80">
<path d="M0 0 C2.475 0.495 2.475 0.495 5 1 C5 2.32 5 3.64 5 5 C6.05960938 4.98839844 7.11921875 4.97679687 8.2109375 4.96484375 C9.59895658 4.95546524 10.98697755 4.94636511 12.375 4.9375 C13.07367188 4.92912109 13.77234375 4.92074219 14.4921875 4.91210938 C19.7734375 4.88671875 19.7734375 4.88671875 22 6 C22.02886537 10.31248609 22.04675255 14.62494762 22.0625 18.9375 C22.07087891 20.16919922 22.07925781 21.40089844 22.08789062 22.66992188 C22.09111328 23.83974609 22.09433594 25.00957031 22.09765625 26.21484375 C22.10289307 27.29886475 22.10812988 28.38288574 22.11352539 29.49975586 C22 32 22 32 21 33 C18.12735944 33.10106874 15.27926372 33.13969672 12.40625 33.1328125 C11.54439087 33.13376923 10.68253174 33.13472595 9.79455566 33.13571167 C7.96866788 33.1363935 6.14277769 33.13453904 4.31689453 33.13037109 C1.51198922 33.12502286 -1.29275595 33.13031599 -4.09765625 33.13671875 C-5.86718786 33.13605797 -7.63671936 33.13477681 -9.40625 33.1328125 C-10.25102905 33.13483673 -11.09580811 33.13686096 -11.96618652 33.13894653 C-17.88504969 33.11495031 -17.88504969 33.11495031 -19 32 C-19.25301239 27.86037717 -19.18522549 23.70894004 -19.1875 19.5625 C-19.19974609 18.39138672 -19.21199219 17.22027344 -19.22460938 16.01367188 C-19.22654297 14.89669922 -19.22847656 13.77972656 -19.23046875 12.62890625 C-19.23457764 11.59838135 -19.23868652 10.56785645 -19.24291992 9.50610352 C-19 7 -19 7 -17 5 C-14.0906442 4.85482256 -11.280054 4.81369204 -8.375 4.875 C-7.57320312 4.88402344 -6.77140625 4.89304687 -5.9453125 4.90234375 C-3.96341477 4.92593777 -1.98167019 4.96180935 0 5 C0 3.35 0 1.7 0 0 Z M-14 11 C-14 16.61 -14 22.22 -14 28 C-3.77 28 6.46 28 17 28 C17 22.39 17 16.78 17 11 C13.04 11 9.08 11 5 11 C4.67 11.66 4.34 12.32 4 13 C3.01 13 2.02 13 1 13 C0.67 12.34 0.34 11.68 0 11 C-4.62 11 -9.24 11 -14 11 Z " fill="#3B84D9" transform="translate(54,43)"/>
<path d="M0 0 C5.74221273 4.88698955 5.74221273 4.88698955 6.23828125 8.953125 C6.41665596 14.47335297 5.9202826 17.7781572 2 22 C-3.02274929 24.93783449 -6.37549392 25.45820528 -12 24 C-16.12417345 22.1253757 -18.2301349 20.19178575 -20 16 C-20.53256641 10.40805268 -20.22883266 6.78757946 -17 2 C-11.37225749 -2.18473161 -6.52675379 -2.66768111 0 0 Z M-12.3125 5.6875 C-14.22678628 8.3107812 -14.92078375 9.7521338 -15 13 C-13.24886475 16.71261227 -13.24886475 16.71261227 -10 19 C-5.96808695 19.53758841 -4.4380964 19.3075996 -1.0625 16.9375 C1.3369117 14.10359033 1.3369117 14.10359033 1.0625 10.375 C0.25872405 7.03623166 0.25872405 7.03623166 -1.6875 5.0625 C-5.7187436 3.210307 -8.67090846 3.03012239 -12.3125 5.6875 Z " fill="#3B84D9" transform="translate(48,12)"/>
<path d="M0 0 C0.66 0.53625 1.32 1.0725 2 1.625 C2 2.285 2 2.945 2 3.625 C-2.32734391 5.85423777 -5.28400182 5.54970553 -10 4.625 C-12.12758042 6.92278686 -13.01532597 7.99663517 -12.9375 11.1875 C-12.21883203 13.75351159 -12.21883203 13.75351159 -10.01953125 14.953125 C-7.42357963 17.10219133 -7.26155178 18.53004274 -6.75 21.8125 C-6.60046875 22.71355469 -6.4509375 23.61460938 -6.296875 24.54296875 C-6.19890625 25.23003906 -6.1009375 25.91710937 -6 26.625 C-6.98742187 26.82996094 -7.97484375 27.03492187 -8.9921875 27.24609375 C-10.27351563 27.51550781 -11.55484375 27.78492187 -12.875 28.0625 C-14.15117187 28.32933594 -15.42734375 28.59617187 -16.7421875 28.87109375 C-19.86460244 29.4597826 -19.86460244 29.4597826 -22 30.625 C-22.46523063 32.52033342 -22.46523063 32.52033342 -22.625 34.6875 C-22.74875 35.986875 -22.8725 37.28625 -23 38.625 C-24.65 38.625 -26.3 38.625 -28 38.625 C-28.34697252 34.89825811 -28.49960895 31.34252033 -28 27.625 C-24.01531764 23.5381463 -18.39444183 22.2073696 -13 20.625 C-13.804375 19.985625 -14.60875 19.34625 -15.4375 18.6875 C-18.34542965 15.21216944 -18.93809399 13.26093358 -19.203125 8.84375 C-18.87470085 5.25634774 -17.36881523 3.24990336 -15 0.625 C-10.65093275 -2.79212427 -4.74492283 -2.1747563 0 0 Z " fill="#3B84D9" transform="translate(32,5.375)"/>
<path d="M0 0 C3.64314398 2.12516732 5.42598016 4.13906344 7 8 C7.34704974 12.9743796 6.65648131 16.21542478 3.4375 20.0625 C2.633125 20.701875 1.82875 21.34125 1 22 C1.91523437 22.33773438 2.83046875 22.67546875 3.7734375 23.0234375 C4.96195313 23.46945313 6.15046875 23.91546875 7.375 24.375 C8.55835937 24.81585937 9.74171875 25.25671875 10.9609375 25.7109375 C14 27 14 27 16 29 C16.1953125 31.3828125 16.1953125 31.3828125 16.125 34.125 C16.10695313 35.03507812 16.08890625 35.94515625 16.0703125 36.8828125 C16.04710938 37.58148438 16.02390625 38.28015625 16 39 C13.525 39.495 13.525 39.495 11 40 C10.67 37.36 10.34 34.72 10 32 C8.60550891 31.516941 7.20933293 31.03874483 5.8125 30.5625 C5.03519531 30.29566406 4.25789063 30.02882813 3.45703125 29.75390625 C0.98690144 28.99598089 -1.45992864 28.46470222 -4 28 C-2.47988077 17.78837556 -2.47988077 17.78837556 -0.25 14.125 C0.1625 13.42375 0.575 12.7225 1 12 C0.33719617 9.56971928 -0.2010972 7.7989028 -2 6 C-3.99784929 6.03222338 -5.99620053 6.06809043 -7.9921875 6.16015625 C-10 6 -10 6 -13 4 C-12.67 3.01 -12.34 2.02 -12 1 C-8.29778834 -0.85110583 -4.04093083 -0.46454795 0 0 Z " fill="#3B84D9" transform="translate(60,4)"/>
<path d="M0 0 C0 1.65 0 3.3 0 5 C-1.8871875 4.938125 -1.8871875 4.938125 -3.8125 4.875 C-9.36078319 4.86624876 -14.58060841 5.90441312 -20 7 C-21.99907671 7.33882656 -23.99855726 7.67544172 -26 8 C-26 10.97 -26 13.94 -26 17 C-27.98 17.99 -27.98 17.99 -30 19 C-32.49040942 16.50959058 -32.32391014 15.56845643 -32.375 12.125 C-32.29072546 8.87106619 -32.22497294 7.36558102 -30.5 4.5625 C-22.70003939 -0.31247538 -8.62860464 -4.31430232 0 0 Z " fill="#3B84D9" transform="translate(49,39)"/>
<path d="M0 0 C4.62 0 9.24 0 14 0 C14 1.32 14 2.64 14 4 C9.38 4 4.76 4 0 4 C0 2.68 0 1.36 0 0 Z " fill="#A3A3A3" transform="translate(48,60)"/>
</svg>
