<?xml version="1.0" encoding="UTF-8"?>
<svg version="1.1" xmlns="http://www.w3.org/2000/svg" width="81" height="80">
<path d="M0 0 C9.17730628 6.48316409 14.674128 14.02322279 17 25 C18.27312244 33.58974177 15.92325615 42.86195619 10.94140625 49.9140625 C3.85448522 58.01681538 -3.40717932 62.86452012 -14.1875 64.2890625 C-18.89243444 64.47933558 -22.90289117 63.53907452 -27.4375 62.3125 C-33.02657212 60.89398696 -36.49036625 61.10724332 -41.78125 63.3359375 C-44.56564095 64.16929395 -46.24478264 63.85411738 -49 63 C-49.66 62.34 -50.32 61.68 -51 61 C-50.74073603 57.82401642 -50.27981271 54.9443679 -49.375 51.890625 C-47.782082 46.27558904 -48.37051506 42.93237532 -50.24609375 37.45703125 C-52.77730096 29.20765646 -50.47974648 20.66472157 -47 13 C-35.42108279 -3.39064941 -18.25889028 -8.28944777 0 0 Z M-39 12 C-43.76868702 19.14061207 -45.84281843 25.40601531 -45 34 C-44.52852518 35.53685161 -44.00707384 37.0592412 -43.4375 38.5625 C-41.71618845 43.20115179 -42.04791007 46.16020952 -43 51 C-43.185625 52.155 -43.37125 53.31 -43.5625 54.5 C-43.706875 55.325 -43.85125 56.15 -44 57 C-43.34773438 56.84402344 -42.69546875 56.68804687 -42.0234375 56.52734375 C-35.7498274 55.1301238 -31.30925904 54.74983547 -25.1875 57.0625 C-16.8950535 59.50145485 -9.66331294 57.72715675 -2 54 C4.40458977 50.03926685 8.84888935 43.78774048 10.61328125 36.44921875 C11.97670806 27.81418231 10.32889554 20.39301314 5.71484375 12.91796875 C1.34297492 7.32830916 -5.01214903 3.36449161 -12 2 C-22.01917273 0.78976329 -32.41155558 4.19337966 -39 12 Z " fill="#3B84D9" transform="translate(59,10)"/>
<path d="M0 0 C1.06734375 -0.00257812 2.1346875 -0.00515625 3.234375 -0.0078125 C4.91273437 0.00378906 4.91273437 0.00378906 6.625 0.015625 C7.74390625 0.00789063 8.8628125 0.00015625 10.015625 -0.0078125 C11.08296875 -0.00523438 12.1503125 -0.00265625 13.25 0 C14.23226562 0.00225586 15.21453125 0.00451172 16.2265625 0.00683594 C18.625 0.265625 18.625 0.265625 20.625 2.265625 C20.295 3.585625 19.965 4.905625 19.625 6.265625 C11.045 6.265625 2.465 6.265625 -6.375 6.265625 C-6.705 4.945625 -7.035 3.625625 -7.375 2.265625 C-4.76631631 -0.34305869 -3.62967636 0.00833587 0 0 Z " fill="#3B84D9" transform="translate(35.375,30.734375)"/>
<path d="M0 0 C6.27 0 12.54 0 19 0 C19.33 1.65 19.66 3.3 20 5 C19 6 19 6 17.23413086 6.11352539 C16.48526611 6.10828857 15.73640137 6.10305176 14.96484375 6.09765625 C14.15595703 6.09443359 13.34707031 6.09121094 12.51367188 6.08789062 C11.66353516 6.07951172 10.81339844 6.07113281 9.9375 6.0625 C9.08349609 6.05798828 8.22949219 6.05347656 7.34960938 6.04882812 C5.23304337 6.03700373 3.11651315 6.01906769 1 6 C-0.0625 4.125 -0.0625 4.125 -1 2 C-0.67 1.34 -0.34 0.68 0 0 Z " fill="#3B84D9" transform="translate(29,43)"/>
</svg>
