<?xml version="1.0" encoding="UTF-8"?>
<svg version="1.1" xmlns="http://www.w3.org/2000/svg" width="81" height="81">
<path d="M0 0 C2.01056207 0.00315859 4.01964907 -0.02031234 6.0300293 -0.0456543 C7.30426758 -0.04629883 8.57850586 -0.04694336 9.89135742 -0.04760742 C11.63630493 -0.05207886 11.63630493 -0.05207886 13.41650391 -0.05664062 C16.90602528 0.35368554 18.78602652 1.2258428 21.58276367 3.31567383 C23.19096106 6.53206861 23.05137598 9.8271155 22.58276367 13.31567383 C19.83545031 18.60679587 16.30150634 22.40942627 10.58276367 24.31567383 C-6.19560877 25.45413959 -6.19560877 25.45413959 -13.41723633 20.31567383 C-17.35465026 16.78209722 -17.99149119 13.55204388 -18.53442383 8.49926758 C-18.39418071 5.88607089 -17.88962605 4.47853202 -16.41723633 2.31567383 C-11.52885892 -0.89699498 -5.62687335 -0.01853429 0 0 Z M-11.41723633 6.31567383 C-12.10151004 8.66170309 -12.10151004 8.66170309 -12.41723633 11.31567383 C-10.02597241 15.24968866 -8.1179243 17.4331301 -3.66723633 18.75317383 C2.35580444 19.85550393 7.53955322 19.26430725 13.08276367 16.69067383 C15.90090232 14.43590778 15.90090232 14.43590778 16.52026367 10.62817383 C16.54088867 9.53504883 16.56151367 8.44192383 16.58276367 7.31567383 C15.51247238 6.02021934 15.51247238 6.02021934 12.99072266 6.20214844 C11.86480713 6.20738525 10.7388916 6.21262207 9.57885742 6.21801758 C7.75644531 6.22285156 7.75644531 6.22285156 5.8972168 6.2277832 C4.61782227 6.23616211 3.33842773 6.24454102 2.02026367 6.25317383 C0.09537109 6.25994141 0.09537109 6.25994141 -1.8684082 6.2668457 C-5.05139655 6.27867837 -8.23429395 6.29516315 -11.41723633 6.31567383 Z " fill="#3B84D9" transform="translate(26.417236328125,47.684326171875)"/>
<path d="M0 0 C3.98444521 2.06600863 6.62808993 4.20899844 9 8 C9.90157356 12.56377936 10.07086061 17.12353782 7.72265625 21.23828125 C5.11980942 24.31205881 2.98761077 26.78193479 -1.171875 27.23828125 C-6.98708213 27.40568873 -10.49113257 27.06897793 -15 23 C-17.90964229 19.50842925 -18.48680835 16.5362597 -18.28125 11.98828125 C-17.62753153 7.36685488 -15.7822398 4.70774077 -12.375 1.625 C-8.06453467 -0.45040923 -4.70180474 -0.84261734 0 0 Z M-12 10 C-12.75 13.5 -12.75 13.5 -12 17 C-10.2235196 19.41093768 -8.7841608 20.6079196 -6.125 21.9375 C-2.71170625 22.03789099 -0.79773485 20.88543001 2 19 C3.74943154 15.64692288 4.23321919 13.93287675 3.3125 10.25 C2.05843658 7.7217504 2.05843658 7.7217504 -1 6 C-6.00538003 5.34712434 -8.65383283 6.16174943 -12 10 Z " fill="#3B84D9" transform="translate(33,15)"/>
<path d="M0 0 C3.41659491 -0.05816623 6.83306205 -0.09365195 10.25 -0.125 C11.21808594 -0.14175781 12.18617187 -0.15851562 13.18359375 -0.17578125 C14.11816406 -0.18222656 15.05273438 -0.18867187 16.015625 -0.1953125 C16.87446289 -0.20578613 17.73330078 -0.21625977 18.61816406 -0.22705078 C21.21428659 0.02042707 22.7936476 0.63274301 25 2 C26.87054538 4.49406051 27.0084946 5.80037682 26.875 8.9375 C25.85228392 12.51700628 24.62677541 14.37322459 22 17 C17.76195584 19.21481874 14.04422733 19.23847845 9.3125 19.1875 C8.29833008 19.1865332 8.29833008 19.1865332 7.26367188 19.18554688 C2.2818674 19.1409337 2.2818674 19.1409337 0 18 C0.66 16.35 1.32 14.7 2 13 C3.299375 13.04125 4.59875 13.0825 5.9375 13.125 C10.83591302 13.14055052 15.28176811 12.2492718 20 11 C20 9.68 20 8.36 20 7 C14.06 6.67 8.12 6.34 2 6 C1.34 4.02 0.68 2.04 0 0 Z " fill="#3B84D9" transform="translate(49,48)"/>
<path d="M0 0 C2.87029869 1.79393668 4.49131638 2.98263276 6 6 C6.5811138 13.08958838 6.5811138 13.08958838 4.125 16.9375 C0.64240255 20.31766811 -2.03637499 20.40798732 -6.73828125 20.33984375 C-9 20 -9 20 -12 17.9375 C-14.40813237 14.40055558 -15 12.27436594 -15 8 C-12.09343948 0.29761462 -7.71725419 -1.13727956 0 0 Z M-5 5 C-6.32 5.99 -7.64 6.98 -9 8 C-8.81171228 10.44480079 -8.81171228 10.44480079 -8 13 C-6.03241727 14.36020151 -6.03241727 14.36020151 -4 15 C-2.68 14.01 -1.36 13.02 0 12 C-0.18828772 9.55519921 -0.18828772 9.55519921 -1 7 C-2.96758273 5.63979849 -2.96758273 5.63979849 -5 5 Z " fill="#3B84D9" transform="translate(63,22)"/>
</svg>
