<?xml version="1.0" encoding="UTF-8"?>
<svg version="1.1" xmlns="http://www.w3.org/2000/svg" width="96" height="96">
<path d="M0 0 C3.81562395 1.29823475 6.07090879 2.74966858 8.8125 5.6875 C11.98945009 8.98868837 15.26318393 12.03348696 18.734375 15.01953125 C22.06247829 17.92875257 25.30181604 20.93361778 28.55078125 23.93041992 C32.19427524 27.28329634 35.89861595 30.55207615 39.671875 33.7578125 C40.32929688 34.37269531 40.32929688 34.37269531 41 35 C41 35.33 41 35.66 41 36 C37.04 36 33.08 36 29 36 C29 46.56 29 57.12 29 68 C21.08 68 13.16 68 5 68 C5 60.08 5 52.16 5 44 C2.36 44 -0.28 44 -3 44 C-3 51.92 -3 59.84 -3 68 C-10.92 68 -18.84 68 -27 68 C-27 57.44 -27 46.88 -27 36 C-30.96 36 -34.92 36 -39 36 C-35.38153578 31.56738133 -31.69001213 27.71909078 -27.3359375 24.015625 C-24.50167659 21.57000856 -21.75069339 19.03847372 -19 16.5 C-12.81970357 10.812581 -6.6220832 5.1735025 0 0 Z M-6.25 17.6875 C-7.37883895 18.7553557 -8.50903949 19.82177396 -9.640625 20.88671875 C-10.14110352 21.36326904 -10.64158203 21.83981934 -11.15722656 22.33081055 C-13 24 -13 24 -16.17333984 26.24023438 C-19.28622817 28.75957249 -19.28622817 28.75957249 -19.68115234 32.41333008 C-19.64973145 33.68587646 -19.61831055 34.95842285 -19.5859375 36.26953125 C-19.57744781 36.95053391 -19.56895813 37.63153656 -19.56021118 38.33317566 C-19.52679302 40.49460485 -19.45155986 42.6522119 -19.375 44.8125 C-19.34488432 46.28314898 -19.31751129 47.75385684 -19.29296875 49.22460938 C-19.22704737 52.81763468 -19.12361723 56.40844394 -19 60 C-16.36 60 -13.72 60 -11 60 C-11 52.08 -11 44.16 -11 36 C-3.08 36 4.84 36 13 36 C13 43.92 13 51.84 13 60 C15.64 60 18.28 60 21 60 C23.44225522 41.25887754 23.44225522 41.25887754 18.05859375 24.1875 C15.23764539 21.36692968 12.13782391 19.09253037 8.71728516 17.04931641 C7 16 7 16 4.16796875 13.69921875 C-0.45094878 10.07898609 -2.77763014 14.37437753 -6.25 17.6875 Z " fill="#A4A4A4" transform="translate(47,12)"/>
</svg>
