<svg width="592" height="423" viewBox="0 0 592 423" fill="none" xmlns="http://www.w3.org/2000/svg">
<path d="M592 382.044H0V382.34H592V382.044Z" fill="#EBEBEB"/>
<path d="M385.581 276.005H397.125C399.607 276.006 402.062 275.502 404.342 274.523C406.622 273.544 408.678 272.11 410.386 270.31H372.321C374.028 272.11 376.085 273.544 378.365 274.523C380.645 275.502 383.1 276.006 385.581 276.005Z" fill="#F0F0F0"/>
<path d="M362.766 223.886V254.16H421.125V223.886H362.766Z" fill="#E6E6E6"/>
<path d="M385.581 228.953H397.125C399.608 228.955 402.064 228.449 404.345 227.468C406.625 226.487 408.681 225.05 410.386 223.246H372.321C374.026 225.05 376.082 226.487 378.362 227.468C380.642 228.449 383.099 228.955 385.581 228.953Z" fill="#F0F0F0"/>
<path d="M364.518 100.69L369.645 114.709H364.518L333.071 100.69H364.518Z" fill="#F5F5F5"/>
<path d="M265.642 382.044H267.927L274.475 349.78L275.659 344.121L282.763 308.956H310.208L325.044 382.044H327.341L312.221 307.618C312.171 307.363 312.034 307.134 311.833 306.969C311.632 306.805 311.379 306.716 311.12 306.718H281.851C281.593 306.717 281.342 306.806 281.143 306.97C280.944 307.135 280.809 307.364 280.762 307.618L274.487 338.497L273.303 344.144L265.642 382.044Z" fill="#F0F0F0"/>
<path d="M221.68 382.044H223.965L238.813 308.956H266.187L273.291 344.144L274.475 349.78L281.034 382.044H283.319L275.623 344.156L274.439 338.532L268.164 307.654C268.103 307.405 267.962 307.182 267.764 307.02C267.565 306.858 267.319 306.764 267.063 306.754H237.901C237.641 306.752 237.389 306.84 237.188 307.005C236.987 307.169 236.85 307.399 236.8 307.654L221.68 382.044Z" fill="#F0F0F0"/>
<path d="M314.305 298.193H234.657C232.83 298.196 231.079 298.924 229.788 300.215C228.496 301.507 227.769 303.258 227.766 305.084V305.321C227.766 305.99 228.032 306.631 228.505 307.104C228.978 307.577 229.619 307.843 230.288 307.843H318.674C319.342 307.843 319.984 307.577 320.457 307.104C320.93 306.631 321.196 305.99 321.196 305.321V305.084C321.192 303.258 320.465 301.507 319.174 300.215C317.882 298.924 316.131 298.196 314.305 298.193Z" fill="#F0F0F0"/>
<path d="M185.71 382.044H187.995L194.543 349.78L195.727 344.121L202.831 308.956H230.205L245.088 382.044H247.385L232.265 307.618C232.215 307.363 232.078 307.134 231.877 306.969C231.676 306.805 231.424 306.716 231.164 306.718H201.919C201.661 306.717 201.41 306.806 201.211 306.97C201.012 307.135 200.877 307.364 200.83 307.618L194.555 338.497L193.371 344.144L185.71 382.044Z" fill="#F0F0F0"/>
<path d="M141.748 382.044H144.045L158.881 308.956H186.267L193.371 344.144L194.555 349.78L201.114 382.044H203.399L195.703 344.156L194.519 338.532L188.256 307.618C188.194 307.369 188.054 307.147 187.855 306.984C187.657 306.822 187.411 306.729 187.155 306.718H157.969C157.709 306.716 157.457 306.805 157.256 306.969C157.055 307.134 156.918 307.363 156.868 307.618L141.748 382.044Z" fill="#F0F0F0"/>
<path d="M234.432 298.193H154.725C152.898 298.196 151.147 298.924 149.856 300.215C148.564 301.507 147.837 303.258 147.834 305.084V305.321C147.834 305.99 148.1 306.631 148.573 307.104C149.046 307.577 149.687 307.843 150.356 307.843H238.753C239.084 307.843 239.411 307.778 239.717 307.651C240.022 307.524 240.299 307.338 240.532 307.104C240.766 306.869 240.95 306.591 241.076 306.285C241.201 305.979 241.265 305.652 241.263 305.321V305.084C241.26 303.268 240.542 301.526 239.263 300.236C237.984 298.946 236.248 298.212 234.432 298.193Z" fill="#F0F0F0"/>
<path d="M287.854 240.355H215.524C214.503 240.355 213.677 241.182 213.677 242.202V272.371C213.677 273.391 214.503 274.218 215.524 274.218H287.854C288.874 274.218 289.701 273.391 289.701 272.371V242.202C289.701 241.182 288.874 240.355 287.854 240.355Z" fill="#407BFF"/>
<path opacity="0.6" d="M287.854 240.355H215.524C214.503 240.355 213.677 241.182 213.677 242.202V272.371C213.677 273.391 214.503 274.218 215.524 274.218H287.854C288.874 274.218 289.701 273.391 289.701 272.371V242.202C289.701 241.182 288.874 240.355 287.854 240.355Z" fill="white"/>
<path opacity="0.1" d="M287.842 240.355H215.488C214.998 240.355 214.528 240.55 214.182 240.896C213.836 241.243 213.641 241.712 213.641 242.202V251.876L251.292 259.287C251.523 259.335 251.76 259.335 251.991 259.287L289.654 251.876V242.202C289.654 241.718 289.464 241.254 289.126 240.909C288.787 240.563 288.326 240.365 287.842 240.355Z" fill="black"/>
<path d="M289.429 227.971H267.336V224.265C267.332 222.733 266.723 221.265 265.64 220.182C264.557 219.1 263.089 218.49 261.558 218.487H241.82C240.289 218.49 238.821 219.1 237.738 220.182C236.655 221.265 236.046 222.733 236.042 224.265V227.971H213.961C213.477 227.971 213.013 228.163 212.671 228.505C212.33 228.847 212.137 229.31 212.137 229.794V248.039C212.14 248.461 212.287 248.868 212.554 249.194C212.822 249.519 213.193 249.743 213.606 249.827L251.34 257.251C251.571 257.286 251.807 257.286 252.038 257.251L289.772 249.827C290.186 249.743 290.559 249.52 290.828 249.195C291.098 248.869 291.247 248.462 291.252 248.039V229.794C291.252 229.31 291.06 228.847 290.718 228.505C290.376 228.163 289.913 227.971 289.429 227.971ZM240.435 224.265C240.438 223.897 240.585 223.545 240.843 223.284C241.102 223.023 241.453 222.874 241.82 222.868H261.558C261.925 222.874 262.276 223.023 262.535 223.284C262.793 223.545 262.94 223.897 262.943 224.265V227.971H240.447L240.435 224.265Z" fill="#407BFF"/>
<path opacity="0.6" d="M289.429 227.971H267.336V224.265C267.332 222.733 266.723 221.265 265.64 220.182C264.557 219.1 263.089 218.49 261.558 218.487H241.82C240.289 218.49 238.821 219.1 237.738 220.182C236.655 221.265 236.046 222.733 236.042 224.265V227.971H213.961C213.477 227.971 213.013 228.163 212.671 228.505C212.33 228.847 212.137 229.31 212.137 229.794V248.039C212.14 248.461 212.287 248.868 212.554 249.194C212.822 249.519 213.193 249.743 213.606 249.827L251.34 257.251C251.571 257.286 251.807 257.286 252.038 257.251L289.772 249.827C290.186 249.743 290.559 249.52 290.828 249.195C291.098 248.869 291.247 248.462 291.252 248.039V229.794C291.252 229.31 291.06 228.847 290.718 228.505C290.376 228.163 289.913 227.971 289.429 227.971ZM240.435 224.265C240.438 223.897 240.585 223.545 240.843 223.284C241.102 223.023 241.453 222.874 241.82 222.868H261.558C261.925 222.874 262.276 223.023 262.535 223.284C262.793 223.545 262.94 223.897 262.943 224.265V227.971H240.447L240.435 224.265Z" fill="white"/>
<path d="M255.59 252.266H247.8C246.832 252.266 246.047 253.051 246.047 254.018V258.944C246.047 259.912 246.832 260.696 247.8 260.696H255.59C256.558 260.696 257.343 259.912 257.343 258.944V254.018C257.343 253.051 256.558 252.266 255.59 252.266Z" fill="#407BFF"/>
<path opacity="0.3" d="M255.59 252.266H247.8C246.832 252.266 246.047 253.051 246.047 254.018V258.944C246.047 259.912 246.832 260.696 247.8 260.696H255.59C256.558 260.696 257.343 259.912 257.343 258.944V254.018C257.343 253.051 256.558 252.266 255.59 252.266Z" fill="white"/>
<path d="M287.854 22.5465H215.524C214.503 22.5465 213.677 23.3735 213.677 24.3936V54.5619C213.677 55.582 214.503 56.4089 215.524 56.4089H287.854C288.874 56.4089 289.701 55.582 289.701 54.5619V24.3936C289.701 23.3735 288.874 22.5465 287.854 22.5465Z" fill="#407BFF"/>
<path opacity="0.6" d="M287.854 22.5465H215.524C214.503 22.5465 213.677 23.3735 213.677 24.3936V54.5619C213.677 55.582 214.503 56.4089 215.524 56.4089H287.854C288.874 56.4089 289.701 55.582 289.701 54.5619V24.3936C289.701 23.3735 288.874 22.5465 287.854 22.5465Z" fill="white"/>
<path opacity="0.1" d="M287.842 22.5465H215.488C214.998 22.5465 214.528 22.7411 214.182 23.0875C213.836 23.4339 213.641 23.9037 213.641 24.3936V34.0668L251.292 41.4787C251.523 41.5259 251.76 41.5259 251.991 41.4787L289.654 34.0668V24.3936C289.654 23.9098 289.464 23.4453 289.126 23.0999C288.787 22.7545 288.326 22.5558 287.842 22.5465Z" fill="black"/>
<path d="M289.429 10.1619H267.336V6.45602C267.332 4.92458 266.723 3.45676 265.64 2.37387C264.557 1.29098 263.089 0.681229 261.558 0.678101H241.82C240.289 0.681229 238.821 1.29098 237.738 2.37387C236.655 3.45676 236.046 4.92458 236.042 6.45602V10.1619H213.961C213.477 10.1619 213.013 10.354 212.671 10.696C212.33 11.0379 212.137 11.5017 212.137 11.9853V30.2307C212.138 30.6526 212.284 31.0613 212.552 31.3873C212.819 31.7133 213.192 31.9364 213.606 32.0186L251.34 39.3949C251.57 39.4421 251.808 39.4421 252.038 39.3949L289.772 31.9712C290.182 31.8935 290.552 31.6789 290.823 31.3626C291.095 31.0462 291.25 30.6471 291.264 30.2307V11.9853C291.264 11.7449 291.217 11.5068 291.124 11.2848C291.032 11.0628 290.897 10.8613 290.726 10.6918C290.555 10.5223 290.353 10.3883 290.13 10.2973C289.908 10.2064 289.669 10.1604 289.429 10.1619ZM240.435 6.45602C240.435 6.08752 240.581 5.73394 240.84 5.47227C241.1 5.2106 241.452 5.06202 241.82 5.0589H261.558C261.924 5.06199 262.275 5.20894 262.534 5.46806C262.793 5.72718 262.94 6.07774 262.943 6.44418V10.1501H240.447L240.435 6.45602Z" fill="#407BFF"/>
<path opacity="0.6" d="M289.429 10.1619H267.336V6.45602C267.332 4.92458 266.723 3.45676 265.64 2.37387C264.557 1.29098 263.089 0.681229 261.558 0.678101H241.82C240.289 0.681229 238.821 1.29098 237.738 2.37387C236.655 3.45676 236.046 4.92458 236.042 6.45602V10.1619H213.961C213.477 10.1619 213.013 10.354 212.671 10.696C212.33 11.0379 212.137 11.5017 212.137 11.9853V30.2307C212.138 30.6526 212.284 31.0613 212.552 31.3873C212.819 31.7133 213.192 31.9364 213.606 32.0186L251.34 39.3949C251.57 39.4421 251.808 39.4421 252.038 39.3949L289.772 31.9712C290.182 31.8935 290.552 31.6789 290.823 31.3626C291.095 31.0462 291.25 30.6471 291.264 30.2307V11.9853C291.264 11.7449 291.217 11.5068 291.124 11.2848C291.032 11.0628 290.897 10.8613 290.726 10.6918C290.555 10.5223 290.353 10.3883 290.13 10.2973C289.908 10.2064 289.669 10.1604 289.429 10.1619ZM240.435 6.45602C240.435 6.08752 240.581 5.73394 240.84 5.47227C241.1 5.2106 241.452 5.06202 241.82 5.0589H261.558C261.924 5.06199 262.275 5.20894 262.534 5.46806C262.793 5.72718 262.94 6.07774 262.943 6.44418V10.1501H240.447L240.435 6.45602Z" fill="white"/>
<path d="M255.59 34.4694H247.8C246.832 34.4694 246.047 35.2539 246.047 36.2217V41.1471C246.047 42.1149 246.832 42.8994 247.8 42.8994H255.59C256.558 42.8994 257.343 42.1149 257.343 41.1471V36.2217C257.343 35.2539 256.558 34.4694 255.59 34.4694Z" fill="#407BFF"/>
<path opacity="0.3" d="M255.59 34.4694H247.8C246.832 34.4694 246.047 35.2539 246.047 36.2217V41.1471C246.047 42.1149 246.832 42.8994 247.8 42.8994H255.59C256.558 42.8994 257.343 42.1149 257.343 41.1471V36.2217C257.343 35.2539 256.558 34.4694 255.59 34.4694Z" fill="white"/>
<path d="M175.185 240.355H102.854C101.834 240.355 101.007 241.182 101.007 242.202V272.371C101.007 273.391 101.834 274.218 102.854 274.218H175.185C176.205 274.218 177.032 273.391 177.032 272.371V242.202C177.032 241.182 176.205 240.355 175.185 240.355Z" fill="#407BFF"/>
<path opacity="0.6" d="M175.185 240.355H102.854C101.834 240.355 101.007 241.182 101.007 242.202V272.371C101.007 273.391 101.834 274.218 102.854 274.218H175.185C176.205 274.218 177.032 273.391 177.032 272.371V242.202C177.032 241.182 176.205 240.355 175.185 240.355Z" fill="white"/>
<path opacity="0.1" d="M175.232 240.355H102.854C102.364 240.355 101.894 240.55 101.548 240.896C101.202 241.243 101.007 241.712 101.007 242.202V251.876L138.658 259.287C138.893 259.335 139.134 259.335 139.369 259.287L177.032 251.876V242.202C177.032 241.72 176.844 241.258 176.508 240.913C176.171 240.568 175.714 240.368 175.232 240.355Z" fill="black"/>
<path d="M176.748 227.971H154.654V224.265C154.651 222.733 154.041 221.265 152.958 220.182C151.875 219.1 150.408 218.49 148.876 218.487H129.151C127.619 218.49 126.152 219.1 125.069 220.182C123.986 221.265 123.376 222.733 123.373 224.265V227.971H101.279C100.796 227.971 100.332 228.163 99.9901 228.505C99.6482 228.847 99.4561 229.31 99.4561 229.794V248.039C99.4584 248.461 99.6056 248.868 99.873 249.194C100.14 249.519 100.511 249.743 100.924 249.827L138.658 257.251C138.894 257.287 139.133 257.287 139.369 257.251L177.103 249.827C177.516 249.743 177.887 249.519 178.154 249.194C178.421 248.868 178.569 248.461 178.571 248.039V229.794C178.571 229.31 178.379 228.847 178.037 228.505C177.695 228.163 177.231 227.971 176.748 227.971ZM127.754 224.265C127.76 223.896 127.909 223.544 128.17 223.283C128.43 223.023 128.782 222.874 129.151 222.868H148.876C149.245 222.874 149.597 223.023 149.857 223.283C150.118 223.544 150.267 223.896 150.273 224.265V227.971H127.777L127.754 224.265Z" fill="#407BFF"/>
<path opacity="0.6" d="M176.748 227.971H154.654V224.265C154.651 222.733 154.041 221.265 152.958 220.182C151.875 219.1 150.408 218.49 148.876 218.487H129.151C127.619 218.49 126.152 219.1 125.069 220.182C123.986 221.265 123.376 222.733 123.373 224.265V227.971H101.279C100.796 227.971 100.332 228.163 99.9901 228.505C99.6482 228.847 99.4561 229.31 99.4561 229.794V248.039C99.4584 248.461 99.6056 248.868 99.873 249.194C100.14 249.519 100.511 249.743 100.924 249.827L138.658 257.251C138.894 257.287 139.133 257.287 139.369 257.251L177.103 249.827C177.516 249.743 177.887 249.519 178.154 249.194C178.421 248.868 178.569 248.461 178.571 248.039V229.794C178.571 229.31 178.379 228.847 178.037 228.505C177.695 228.163 177.231 227.971 176.748 227.971ZM127.754 224.265C127.76 223.896 127.909 223.544 128.17 223.283C128.43 223.023 128.782 222.874 129.151 222.868H148.876C149.245 222.874 149.597 223.023 149.857 223.283C150.118 223.544 150.267 223.896 150.273 224.265V227.971H127.777L127.754 224.265Z" fill="white"/>
<path d="M142.909 252.266H135.118C134.151 252.266 133.366 253.051 133.366 254.018V258.944C133.366 259.912 134.151 260.696 135.118 260.696H142.909C143.877 260.696 144.661 259.912 144.661 258.944V254.018C144.661 253.051 143.877 252.266 142.909 252.266Z" fill="#407BFF"/>
<path opacity="0.3" d="M142.909 252.266H135.118C134.151 252.266 133.366 253.051 133.366 254.018V258.944C133.366 259.912 134.151 260.696 135.118 260.696H142.909C143.877 260.696 144.661 259.912 144.661 258.944V254.018C144.661 253.051 143.877 252.266 142.909 252.266Z" fill="white"/>
<path d="M175.185 22.5465H102.854C101.834 22.5465 101.007 23.3735 101.007 24.3936V54.5619C101.007 55.582 101.834 56.4089 102.854 56.4089H175.185C176.205 56.4089 177.032 55.582 177.032 54.5619V24.3936C177.032 23.3735 176.205 22.5465 175.185 22.5465Z" fill="#407BFF"/>
<path opacity="0.6" d="M175.185 22.5465H102.854C101.834 22.5465 101.007 23.3735 101.007 24.3936V54.5619C101.007 55.582 101.834 56.4089 102.854 56.4089H175.185C176.205 56.4089 177.032 55.582 177.032 54.5619V24.3936C177.032 23.3735 176.205 22.5465 175.185 22.5465Z" fill="white"/>
<path opacity="0.1" d="M175.232 22.5465H102.854C102.364 22.5465 101.894 22.7411 101.548 23.0875C101.202 23.4339 101.007 23.9037 101.007 24.3936V34.0668L138.658 41.4787C138.893 41.5262 139.134 41.5262 139.369 41.4787L177.032 34.0668V24.3936C177.032 23.9118 176.844 23.449 176.508 23.104C176.171 22.7589 175.714 22.5589 175.232 22.5465Z" fill="black"/>
<path d="M176.748 10.1618H154.654V6.4559C154.651 4.92446 154.041 3.45664 152.958 2.37375C151.875 1.29086 150.408 0.681107 148.876 0.677979H129.151C127.619 0.681107 126.152 1.29086 125.069 2.37375C123.986 3.45664 123.376 4.92446 123.373 6.4559V10.1618H101.279C100.796 10.1618 100.332 10.3539 99.9901 10.6959C99.6482 11.0378 99.4561 11.5016 99.4561 11.9852V30.2306C99.4562 30.6525 99.6026 31.0612 99.8703 31.3872C100.138 31.7132 100.51 31.9363 100.924 32.0185L138.658 39.3948C138.893 39.4423 139.134 39.4423 139.369 39.3948L177.103 31.9711C177.517 31.8889 177.889 31.6658 178.157 31.3398C178.424 31.0138 178.571 30.6051 178.571 30.1833V11.9852C178.571 11.5016 178.379 11.0378 178.037 10.6959C177.695 10.3539 177.231 10.1618 176.748 10.1618ZM127.754 6.4559C127.757 6.08632 127.905 5.73275 128.166 5.47141C128.428 5.21006 128.781 5.06187 129.151 5.05878H148.876C149.244 5.06182 149.596 5.20838 149.857 5.46718C150.118 5.72598 150.267 6.07654 150.273 6.44406V10.15H127.777L127.754 6.4559Z" fill="#407BFF"/>
<path opacity="0.6" d="M176.748 10.1618H154.654V6.4559C154.651 4.92446 154.041 3.45664 152.958 2.37375C151.875 1.29086 150.408 0.681107 148.876 0.677979H129.151C127.619 0.681107 126.152 1.29086 125.069 2.37375C123.986 3.45664 123.376 4.92446 123.373 6.4559V10.1618H101.279C100.796 10.1618 100.332 10.3539 99.9901 10.6959C99.6482 11.0378 99.4561 11.5016 99.4561 11.9852V30.2306C99.4562 30.6525 99.6026 31.0612 99.8703 31.3872C100.138 31.7132 100.51 31.9363 100.924 32.0185L138.658 39.3948C138.893 39.4423 139.134 39.4423 139.369 39.3948L177.103 31.9711C177.517 31.8889 177.889 31.6658 178.157 31.3398C178.424 31.0138 178.571 30.6051 178.571 30.1833V11.9852C178.571 11.5016 178.379 11.0378 178.037 10.6959C177.695 10.3539 177.231 10.1618 176.748 10.1618ZM127.754 6.4559C127.757 6.08632 127.905 5.73275 128.166 5.47141C128.428 5.21006 128.781 5.06187 129.151 5.05878H148.876C149.244 5.06182 149.596 5.20838 149.857 5.46718C150.118 5.72598 150.267 6.07654 150.273 6.44406V10.15H127.777L127.754 6.4559Z" fill="white"/>
<path d="M142.909 34.4694H135.118C134.151 34.4694 133.366 35.2539 133.366 36.2217V41.1471C133.366 42.1149 134.151 42.8994 135.118 42.8994H142.909C143.877 42.8994 144.661 42.1149 144.661 41.1471V36.2217C144.661 35.2539 143.877 34.4694 142.909 34.4694Z" fill="#407BFF"/>
<path opacity="0.3" d="M142.909 34.4694H135.118C134.151 34.4694 133.366 35.2539 133.366 36.2217V41.1471C133.366 42.1149 134.151 42.8994 135.118 42.8994H142.909C143.877 42.8994 144.661 42.1149 144.661 41.1471V36.2217C144.661 35.2539 143.877 34.4694 142.909 34.4694Z" fill="white"/>
<path d="M165.76 165.313H102.854C102.361 165.313 101.888 165.117 101.54 164.769C101.191 164.42 100.995 163.947 100.995 163.454V133.298C100.997 133.049 101.049 132.803 101.149 132.576C101.197 132.469 101.253 132.366 101.315 132.268C101.381 132.166 101.46 132.075 101.552 131.995C101.896 131.649 102.365 131.453 102.854 131.451H162.397C161.902 135.583 161.74 139.748 161.912 143.906C161.912 144.581 161.912 145.256 162.018 145.919C162.101 147.162 162.196 148.418 162.338 149.661C162.948 154.98 164.094 160.225 165.76 165.313Z" fill="#407BFF"/>
<path opacity="0.6" d="M165.76 165.313H102.854C102.361 165.313 101.888 165.117 101.54 164.769C101.191 164.42 100.995 163.947 100.995 163.454V133.298C100.997 133.049 101.049 132.803 101.149 132.576C101.197 132.469 101.253 132.366 101.315 132.268C101.381 132.166 101.46 132.075 101.552 131.995C101.896 131.649 102.365 131.453 102.854 131.451H162.397C161.902 135.583 161.74 139.748 161.912 143.906C161.912 144.581 161.912 145.256 162.018 145.919C162.101 147.162 162.196 148.418 162.338 149.661C162.948 154.98 164.094 160.225 165.76 165.313Z" fill="white"/>
<path opacity="0.1" d="M162.397 131.451C161.902 135.583 161.74 139.748 161.912 143.906C161.912 144.581 161.912 145.256 162.019 145.919L144.661 149.329L139.357 150.371C139.128 150.43 138.887 150.43 138.658 150.371L133.366 149.341L101.007 142.971V133.286C101.011 133.043 101.059 132.802 101.149 132.576C101.197 132.469 101.253 132.366 101.315 132.268C101.381 132.166 101.461 132.075 101.552 131.995C101.897 131.649 102.365 131.453 102.854 131.451H162.397Z" fill="black"/>
<path d="M164.872 119.066H154.666V115.36C154.66 113.828 154.047 112.36 152.963 111.277C151.878 110.195 150.409 109.586 148.876 109.582H129.151C127.618 109.582 126.149 110.191 125.065 111.275C123.982 112.358 123.373 113.828 123.373 115.36V119.066H101.279C101.04 119.066 100.803 119.113 100.582 119.205C100.36 119.297 100.159 119.431 99.9901 119.6C99.8208 119.77 99.6865 119.971 99.5948 120.192C99.5032 120.413 99.4561 120.65 99.4561 120.89V139.123C99.4562 139.548 99.6039 139.96 99.8738 140.288C100.144 140.616 100.519 140.841 100.936 140.923H101.007L133.366 147.305L138.658 148.335C138.889 148.382 139.126 148.382 139.357 148.335L144.661 147.293L161.912 143.895C161.74 139.737 161.902 135.571 162.397 131.439C162.889 127.255 163.717 123.117 164.872 119.066ZM127.754 115.36C127.76 114.993 127.909 114.642 128.17 114.383C128.431 114.125 128.783 113.978 129.151 113.975H148.876C149.243 113.978 149.593 114.125 149.852 114.384C150.111 114.643 150.258 114.994 150.262 115.36V119.066H127.765L127.754 115.36Z" fill="#407BFF"/>
<path opacity="0.6" d="M164.872 119.066H154.666V115.36C154.66 113.828 154.047 112.36 152.963 111.277C151.878 110.195 150.409 109.586 148.876 109.582H129.151C127.618 109.582 126.149 110.191 125.065 111.275C123.982 112.358 123.373 113.828 123.373 115.36V119.066H101.279C101.04 119.066 100.803 119.113 100.582 119.205C100.36 119.297 100.159 119.431 99.9901 119.6C99.8208 119.77 99.6865 119.971 99.5948 120.192C99.5032 120.413 99.4561 120.65 99.4561 120.89V139.123C99.4562 139.548 99.6039 139.96 99.8738 140.288C100.144 140.616 100.519 140.841 100.936 140.923H101.007L133.366 147.305L138.658 148.335C138.889 148.382 139.126 148.382 139.357 148.335L144.661 147.293L161.912 143.895C161.74 139.737 161.902 135.571 162.397 131.439C162.889 127.255 163.717 123.117 164.872 119.066ZM127.754 115.36C127.76 114.993 127.909 114.642 128.17 114.383C128.431 114.125 128.783 113.978 129.151 113.975H148.876C149.243 113.978 149.593 114.125 149.852 114.384C150.111 114.643 150.258 114.994 150.262 115.36V119.066H127.765L127.754 115.36Z" fill="white"/>
<path d="M142.909 143.362H135.118C134.151 143.362 133.366 144.146 133.366 145.114V150.04C133.366 151.007 134.151 151.792 135.118 151.792H142.909C143.877 151.792 144.661 151.007 144.661 150.04V145.114C144.661 144.146 143.877 143.362 142.909 143.362Z" fill="#407BFF"/>
<path opacity="0.3" d="M142.909 143.362H135.118C134.151 143.362 133.366 144.146 133.366 145.114V150.04C133.366 151.007 134.151 151.792 135.118 151.792H142.909C143.877 151.792 144.661 151.007 144.661 150.04V145.114C144.661 144.146 143.877 143.362 142.909 143.362Z" fill="white"/>
<path d="M328.193 274.206H400.524C401.544 274.206 402.371 273.379 402.371 272.359V242.19C402.371 241.17 401.544 240.343 400.524 240.343H328.193C327.173 240.343 326.346 241.17 326.346 242.19V272.359C326.346 273.379 327.173 274.206 328.193 274.206Z" fill="#407BFF"/>
<path opacity="0.6" d="M328.193 274.206H400.524C401.544 274.206 402.371 273.379 402.371 272.359V242.19C402.371 241.17 401.544 240.343 400.524 240.343H328.193C327.173 240.343 326.346 241.17 326.346 242.19V272.359C326.346 273.379 327.173 274.206 328.193 274.206Z" fill="white"/>
<path opacity="0.1" d="M328.205 240.355H400.524C401.014 240.355 401.483 240.55 401.83 240.896C402.176 241.242 402.371 241.712 402.371 242.202V251.875L364.672 259.287C364.442 259.334 364.204 259.334 363.974 259.287L326.311 251.875V242.202C326.31 241.956 326.36 241.711 326.456 241.484C326.551 241.257 326.692 241.051 326.868 240.879C327.045 240.707 327.254 240.572 327.484 240.482C327.713 240.392 327.958 240.349 328.205 240.355Z" fill="black"/>
<path d="M326.63 227.971H348.723V224.265C348.727 222.733 349.336 221.265 350.419 220.182C351.502 219.1 352.97 218.49 354.501 218.487H374.239C375.77 218.49 377.238 219.1 378.321 220.182C379.404 221.265 380.013 222.733 380.017 224.265V227.971H402.098C402.338 227.971 402.575 228.018 402.796 228.109C403.017 228.201 403.218 228.335 403.387 228.505C403.557 228.674 403.691 228.875 403.783 229.096C403.874 229.317 403.922 229.554 403.922 229.794V248.039C403.919 248.461 403.772 248.868 403.505 249.194C403.237 249.519 402.866 249.743 402.453 249.827L364.672 257.251C364.436 257.287 364.197 257.287 363.962 257.251L326.227 249.827C325.815 249.743 325.444 249.519 325.176 249.194C324.909 248.868 324.762 248.461 324.759 248.039V229.794C324.759 229.55 324.808 229.309 324.902 229.085C324.997 228.861 325.136 228.658 325.31 228.488C325.484 228.318 325.691 228.184 325.918 228.096C326.144 228.007 326.387 227.964 326.63 227.971ZM375.624 224.265C375.621 223.897 375.474 223.545 375.215 223.284C374.957 223.023 374.606 222.874 374.239 222.868H354.501C354.133 222.874 353.781 223.023 353.52 223.283C353.259 223.544 353.11 223.896 353.104 224.265V227.971H375.6L375.624 224.265Z" fill="#407BFF"/>
<path opacity="0.6" d="M326.63 227.971H348.723V224.265C348.727 222.733 349.336 221.265 350.419 220.182C351.502 219.1 352.97 218.49 354.501 218.487H374.239C375.77 218.49 377.238 219.1 378.321 220.182C379.404 221.265 380.013 222.733 380.017 224.265V227.971H402.098C402.338 227.971 402.575 228.018 402.796 228.109C403.017 228.201 403.218 228.335 403.387 228.505C403.557 228.674 403.691 228.875 403.783 229.096C403.874 229.317 403.922 229.554 403.922 229.794V248.039C403.919 248.461 403.772 248.868 403.505 249.194C403.237 249.519 402.866 249.743 402.453 249.827L364.672 257.251C364.436 257.287 364.197 257.287 363.962 257.251L326.227 249.827C325.815 249.743 325.444 249.519 325.176 249.194C324.909 248.868 324.762 248.461 324.759 248.039V229.794C324.759 229.55 324.808 229.309 324.902 229.085C324.997 228.861 325.136 228.658 325.31 228.488C325.484 228.318 325.691 228.184 325.918 228.096C326.144 228.007 326.387 227.964 326.63 227.971ZM375.624 224.265C375.621 223.897 375.474 223.545 375.215 223.284C374.957 223.023 374.606 222.874 374.239 222.868H354.501C354.133 222.874 353.781 223.023 353.52 223.283C353.259 223.544 353.11 223.896 353.104 224.265V227.971H375.6L375.624 224.265Z" fill="white"/>
<path d="M360.469 260.696H368.26C369.227 260.696 370.012 259.912 370.012 258.944V254.019C370.012 253.051 369.227 252.266 368.26 252.266H360.469C359.501 252.266 358.717 253.051 358.717 254.019V258.944C358.717 259.912 359.501 260.696 360.469 260.696Z" fill="#407BFF"/>
<path opacity="0.3" d="M360.469 260.696H368.26C369.227 260.696 370.012 259.912 370.012 258.944V254.019C370.012 253.051 369.227 252.266 368.26 252.266H360.469C359.501 252.266 358.717 253.051 358.717 254.019V258.944C358.717 259.912 359.501 260.696 360.469 260.696Z" fill="white"/>
<path d="M328.193 56.3971L400.524 56.3971C401.544 56.3971 402.371 55.5701 402.371 54.55V24.3817C402.371 23.3616 401.544 22.5347 400.524 22.5347L328.193 22.5347C327.173 22.5347 326.346 23.3616 326.346 24.3817V54.55C326.346 55.5701 327.173 56.3971 328.193 56.3971Z" fill="#407BFF"/>
<path opacity="0.6" d="M328.193 56.3971L400.524 56.3971C401.544 56.3971 402.371 55.5701 402.371 54.55V24.3817C402.371 23.3616 401.544 22.5347 400.524 22.5347L328.193 22.5347C327.173 22.5347 326.346 23.3616 326.346 24.3817V54.55C326.346 55.5701 327.173 56.3971 328.193 56.3971Z" fill="white"/>
<path opacity="0.1" d="M328.205 22.5465H400.524C401.014 22.5465 401.483 22.7411 401.83 23.0875C402.176 23.4339 402.371 23.9037 402.371 24.3936V34.0668L364.672 41.4787C364.442 41.5259 364.204 41.5259 363.974 41.4787L326.358 34.0668V24.3936C326.358 23.9037 326.553 23.4339 326.899 23.0875C327.245 22.7411 327.715 22.5465 328.205 22.5465Z" fill="black"/>
<path d="M326.63 10.1618H348.723V6.45589C348.727 4.92445 349.336 3.45663 350.419 2.37374C351.502 1.29084 352.97 0.681094 354.501 0.677965H374.239C375.001 0.673287 375.757 0.8192 376.462 1.10733C377.168 1.39545 377.81 1.82012 378.351 2.35696C378.893 2.8938 379.323 3.53225 379.616 4.23565C379.91 4.93905 380.062 5.69356 380.064 6.45589V10.1618H402.146C402.629 10.1618 403.093 10.3539 403.435 10.6959C403.777 11.0378 403.969 11.5016 403.969 11.9852V30.2306C403.969 30.6524 403.822 31.0612 403.555 31.3872C403.287 31.7132 402.914 31.9363 402.501 32.0184L364.672 39.3948C364.437 39.4423 364.196 39.4423 363.962 39.3948L326.227 31.9711C325.814 31.8889 325.441 31.6658 325.174 31.3398C324.906 31.0138 324.759 30.6051 324.759 30.1832V11.9852C324.759 11.7417 324.808 11.5006 324.902 11.2763C324.997 11.0519 325.136 10.8488 325.31 10.6788C325.484 10.5089 325.691 10.3756 325.918 10.2868C326.144 10.198 326.387 10.1555 326.63 10.1618ZM375.624 6.45589C375.624 6.08739 375.478 5.73381 375.219 5.47213C374.959 5.21046 374.607 5.06189 374.239 5.05877H354.501C354.134 5.0618 353.782 5.20836 353.521 5.46717C353.26 5.72597 353.11 6.07652 353.104 6.44404V10.15H375.6L375.624 6.45589Z" fill="#407BFF"/>
<path opacity="0.6" d="M326.63 10.1618H348.723V6.45589C348.727 4.92445 349.336 3.45663 350.419 2.37374C351.502 1.29084 352.97 0.681094 354.501 0.677965H374.239C375.001 0.673287 375.757 0.8192 376.462 1.10733C377.168 1.39545 377.81 1.82012 378.351 2.35696C378.893 2.8938 379.323 3.53225 379.616 4.23565C379.91 4.93905 380.062 5.69356 380.064 6.45589V10.1618H402.146C402.629 10.1618 403.093 10.3539 403.435 10.6959C403.777 11.0378 403.969 11.5016 403.969 11.9852V30.2306C403.969 30.6524 403.822 31.0612 403.555 31.3872C403.287 31.7132 402.914 31.9363 402.501 32.0184L364.672 39.3948C364.437 39.4423 364.196 39.4423 363.962 39.3948L326.227 31.9711C325.814 31.8889 325.441 31.6658 325.174 31.3398C324.906 31.0138 324.759 30.6051 324.759 30.1832V11.9852C324.759 11.7417 324.808 11.5006 324.902 11.2763C324.997 11.0519 325.136 10.8488 325.31 10.6788C325.484 10.5089 325.691 10.3756 325.918 10.2868C326.144 10.198 326.387 10.1555 326.63 10.1618ZM375.624 6.45589C375.624 6.08739 375.478 5.73381 375.219 5.47213C374.959 5.21046 374.607 5.06189 374.239 5.05877H354.501C354.134 5.0618 353.782 5.20836 353.521 5.46717C353.26 5.72597 353.11 6.07652 353.104 6.44404V10.15H375.6L375.624 6.45589Z" fill="white"/>
<path d="M360.469 42.8877H368.26C369.227 42.8877 370.012 42.1032 370.012 41.1354V36.2099C370.012 35.2421 369.227 34.4576 368.26 34.4576H360.469C359.501 34.4576 358.717 35.2421 358.717 36.2099V41.1354C358.717 42.1032 359.501 42.8877 360.469 42.8877Z" fill="#407BFF"/>
<path opacity="0.3" d="M360.469 42.8877H368.26C369.227 42.8877 370.012 42.1032 370.012 41.1354V36.2099C370.012 35.2421 369.227 34.4576 368.26 34.4576H360.469C359.501 34.4576 358.717 35.2421 358.717 36.2099V41.1354C358.717 42.1032 359.501 42.8877 360.469 42.8877Z" fill="white"/>
<path d="M337.665 165.313H400.535C401.026 165.31 401.496 165.113 401.842 164.765C402.188 164.416 402.382 163.945 402.382 163.454V133.298C402.381 133.049 402.328 132.803 402.229 132.576C402.185 132.467 402.13 132.364 402.063 132.268C401.997 132.166 401.917 132.075 401.826 131.995C401.656 131.823 401.453 131.685 401.23 131.592C401.006 131.498 400.766 131.45 400.524 131.451H340.992C341.487 135.583 341.65 139.748 341.478 143.906C341.478 144.581 341.478 145.256 341.371 145.919C341.3 147.162 341.193 148.418 341.051 149.661C340.453 154.979 339.319 160.223 337.665 165.313Z" fill="#407BFF"/>
<path opacity="0.6" d="M337.665 165.313H400.535C401.026 165.31 401.496 165.113 401.842 164.765C402.188 164.416 402.382 163.945 402.382 163.454V133.298C402.381 133.049 402.328 132.803 402.229 132.576C402.185 132.467 402.13 132.364 402.063 132.268C401.997 132.166 401.917 132.075 401.826 131.995C401.656 131.823 401.453 131.685 401.23 131.592C401.006 131.498 400.766 131.45 400.524 131.451H340.992C341.487 135.583 341.65 139.748 341.478 143.906C341.478 144.581 341.478 145.256 341.371 145.919C341.3 147.162 341.193 148.418 341.051 149.661C340.453 154.979 339.319 160.223 337.665 165.313Z" fill="white"/>
<path opacity="0.1" d="M340.992 131.451C341.488 135.583 341.65 139.748 341.478 143.906C341.478 144.581 341.478 145.256 341.371 145.919L358.752 149.329L364.057 150.371C364.286 150.43 364.526 150.43 364.755 150.371L370.048 149.341L402.406 142.971V133.286C402.403 133.043 402.354 132.802 402.264 132.576C402.221 132.467 402.165 132.364 402.098 132.268C402.032 132.166 401.953 132.075 401.862 131.995C401.692 131.823 401.489 131.685 401.265 131.592C401.042 131.498 400.802 131.45 400.559 131.451H340.992Z" fill="black"/>
<path d="M338.506 119.066H348.724V115.36C348.727 113.829 349.336 112.361 350.419 111.278C351.502 110.195 352.97 109.586 354.501 109.582H374.227C375.76 109.582 377.231 110.191 378.317 111.274C379.402 112.357 380.014 113.827 380.017 115.36V119.066H402.098C402.582 119.066 403.046 119.258 403.388 119.6C403.73 119.942 403.922 120.406 403.922 120.89V139.123C403.922 139.546 403.776 139.957 403.508 140.285C403.241 140.613 402.868 140.838 402.453 140.923H402.371L370.012 147.305L364.672 148.323C364.442 148.37 364.204 148.37 363.973 148.323L358.669 147.281L341.418 143.883C341.754 135.49 340.755 127.098 338.458 119.019L338.506 119.066ZM375.624 115.36C375.618 114.993 375.468 114.642 375.207 114.383C374.946 114.125 374.594 113.978 374.227 113.975H354.501C354.135 113.978 353.784 114.125 353.525 114.384C353.266 114.643 353.119 114.994 353.116 115.36V119.066H375.612L375.624 115.36Z" fill="#407BFF"/>
<path opacity="0.6" d="M338.506 119.066H348.724V115.36C348.727 113.829 349.336 112.361 350.419 111.278C351.502 110.195 352.97 109.586 354.501 109.582H374.227C375.76 109.582 377.231 110.191 378.317 111.274C379.402 112.357 380.014 113.827 380.017 115.36V119.066H402.098C402.582 119.066 403.046 119.258 403.388 119.6C403.73 119.942 403.922 120.406 403.922 120.89V139.123C403.922 139.546 403.776 139.957 403.508 140.285C403.241 140.613 402.868 140.838 402.453 140.923H402.371L370.012 147.305L364.672 148.323C364.442 148.37 364.204 148.37 363.973 148.323L358.669 147.281L341.418 143.883C341.754 135.49 340.755 127.098 338.458 119.019L338.506 119.066ZM375.624 115.36C375.618 114.993 375.468 114.642 375.207 114.383C374.946 114.125 374.594 113.978 374.227 113.975H354.501C354.135 113.978 353.784 114.125 353.525 114.384C353.266 114.643 353.119 114.994 353.116 115.36V119.066H375.612L375.624 115.36Z" fill="white"/>
<path d="M360.469 151.804H368.26C369.227 151.804 370.012 151.019 370.012 150.052V145.126C370.012 144.158 369.227 143.374 368.26 143.374H360.469C359.501 143.374 358.717 144.158 358.717 145.126V150.052C358.717 151.019 359.501 151.804 360.469 151.804Z" fill="#407BFF"/>
<path opacity="0.3" d="M360.469 151.804H368.26C369.227 151.804 370.012 151.019 370.012 150.052V145.126C370.012 144.158 369.227 143.374 368.26 143.374H360.469C359.501 143.374 358.717 144.158 358.717 145.126V150.052C358.717 151.019 359.501 151.804 360.469 151.804Z" fill="white"/>
<path d="M307.485 124.098H203.553C202.089 124.098 200.901 125.286 200.901 126.75V170.097C200.901 171.561 202.089 172.749 203.553 172.749H307.485C308.95 172.749 310.137 171.561 310.137 170.097V126.75C310.137 125.286 308.95 124.098 307.485 124.098Z" fill="#407BFF"/>
<path d="M269.692 116.355H241.335C239.185 116.352 237.124 115.496 235.603 113.976C234.083 112.456 233.227 110.394 233.224 108.244V100.963C233.227 98.8128 234.083 96.7517 235.603 95.2314C237.124 93.711 239.185 92.8555 241.335 92.8524H269.692C271.843 92.8524 273.906 93.7069 275.426 95.2279C276.947 96.7489 277.802 98.8118 277.802 100.963V108.209C277.807 109.277 277.6 110.335 277.195 111.324C276.789 112.312 276.193 113.21 275.439 113.967C274.686 114.724 273.79 115.324 272.804 115.734C271.817 116.144 270.76 116.355 269.692 116.355ZM241.335 98.8079C240.764 98.814 240.218 99.0427 239.814 99.4451C239.409 99.8476 239.177 100.392 239.168 100.963V108.209C239.168 108.79 239.399 109.347 239.81 109.758C240.22 110.169 240.778 110.399 241.358 110.399H269.715C270.296 110.399 270.853 110.169 271.264 109.758C271.675 109.347 271.906 108.79 271.906 108.209V100.963C271.906 100.382 271.675 99.8248 271.264 99.414C270.853 99.0032 270.296 98.7724 269.715 98.7724L241.335 98.8079Z" fill="#407BFF"/>
<path opacity="0.2" d="M307.473 124.098H203.565C203.216 124.097 202.87 124.164 202.547 124.297C202.223 124.429 201.93 124.624 201.682 124.871C201.435 125.117 201.238 125.41 201.104 125.733C200.97 126.055 200.901 126.401 200.901 126.75V140.662L255.01 151.318C255.342 151.39 255.685 151.39 256.016 151.318L310.137 140.662V126.75C310.137 126.401 310.068 126.055 309.934 125.733C309.8 125.41 309.604 125.117 309.356 124.871C309.108 124.624 308.815 124.429 308.492 124.297C308.168 124.164 307.822 124.097 307.473 124.098Z" fill="black"/>
<path d="M310.208 137.667L255.993 148.323C255.656 148.382 255.311 148.382 254.975 148.323L200.759 137.667C200.164 137.549 199.627 137.229 199.241 136.761C198.854 136.292 198.642 135.705 198.64 135.098V108.931C198.64 108.588 198.708 108.247 198.839 107.93C198.971 107.612 199.163 107.324 199.406 107.081C199.649 106.838 199.938 106.645 200.255 106.514C200.573 106.382 200.913 106.315 201.257 106.315H309.735C310.078 106.315 310.419 106.382 310.736 106.514C311.053 106.645 311.342 106.838 311.585 107.081C311.828 107.324 312.021 107.612 312.152 107.93C312.284 108.247 312.351 108.588 312.351 108.931V135.145C312.339 135.748 312.12 136.328 311.729 136.788C311.339 137.247 310.801 137.558 310.208 137.667Z" fill="#407BFF"/>
<path d="M261.131 141.231H249.919C248.532 141.231 247.409 142.354 247.409 143.741V150.833C247.409 152.219 248.532 153.343 249.919 153.343H261.131C262.518 153.343 263.641 152.219 263.641 150.833V143.741C263.641 142.354 262.518 141.231 261.131 141.231Z" fill="#407BFF"/>
<path opacity="0.4" d="M261.131 141.231H249.919C248.532 141.231 247.409 142.354 247.409 143.741V150.833C247.409 152.219 248.532 153.343 249.919 153.343H261.131C262.518 153.343 263.641 152.219 263.641 150.833V143.741C263.641 142.354 262.518 141.231 261.131 141.231Z" fill="black"/>
<path d="M450.986 150.939C452.347 153.746 453.354 156.398 454.538 159.168C455.722 161.939 456.586 164.698 457.509 167.527C459.382 173.265 460.764 179.151 461.642 185.122C461.76 185.867 461.819 186.673 461.902 187.49L462.021 188.674C462.021 188.887 462.021 189.041 462.021 189.289V190.059C462.06 191.854 461.905 193.649 461.559 195.41C460.972 198.473 460.136 201.482 459.061 204.409C457.039 209.972 454.518 215.342 451.53 220.452L445.516 217.906C446.853 212.507 448.203 207.002 449.221 201.686C449.719 199.139 450.071 196.565 450.275 193.978C450.345 192.92 450.321 191.858 450.204 190.805L450.074 190.059L449.908 189.112C449.778 188.484 449.695 187.857 449.541 187.217C448.361 181.991 446.834 176.849 444.971 171.825C444.071 169.256 443.077 166.698 442.082 164.129C441.087 161.56 439.986 158.979 438.968 156.611L450.986 150.939Z" fill="#7F3E3B"/>
<path d="M445.776 216.332L441.158 220.831L451.234 225.567C451.234 225.567 453.673 221.305 451.992 217.445L445.776 216.332Z" fill="#7F3E3B"/>
<path d="M437.44 227.544L445.942 231.025L451.234 225.52L441.158 220.831L437.44 227.544Z" fill="#7F3E3B"/>
<path opacity="0.2" d="M264.991 222.69C281.745 220.813 297.567 214.011 310.455 203.144C323.344 192.276 332.721 177.831 337.4 161.635C342.08 145.438 341.852 128.218 336.746 112.151C331.64 96.0841 321.884 81.8919 308.713 71.369C295.541 60.846 279.545 54.4647 262.747 53.032C245.949 51.5992 229.104 55.1793 214.34 63.3196C199.577 71.4599 187.559 83.7949 179.805 98.765C172.052 113.735 168.911 130.668 170.78 147.423C172.022 158.552 175.444 169.327 180.851 179.134C186.258 188.94 193.544 197.585 202.292 204.574C211.041 211.564 221.081 216.761 231.839 219.87C242.597 222.978 253.862 223.936 264.991 222.69Z" fill="#407BFF"/>
<path opacity="0.1" d="M202.961 70.8181L332.609 174.371C333.166 173.187 333.687 172.003 334.196 170.819C337.445 163.088 339.52 154.915 340.353 146.57L228.37 57.1548C219.18 60.2195 210.585 64.8413 202.961 70.8181Z" fill="white"/>
<path opacity="0.1" d="M173.053 116.201L294.934 213.585C306.515 207.545 316.553 198.925 324.274 188.389L191.169 82.0188C182.591 91.8741 176.393 103.569 173.053 116.201Z" fill="white"/>
<path d="M465.513 233.713C465.357 231.558 464.652 229.479 463.465 227.674C462.602 226.347 461.395 225.279 459.972 224.584L451.885 220.618C446.51 217.954 441.099 215.361 435.688 212.768C430.277 210.175 424.831 207.629 419.408 205.06C413.985 202.491 408.515 199.993 403.033 197.542C392.093 192.585 381.082 187.762 370 183.073C364.459 180.705 358.906 178.432 353.305 176.206C351.67 175.562 350.341 174.321 349.587 172.734C348.833 171.146 348.711 169.332 349.244 167.658C356.741 144.023 355.034 118.429 344.465 95.9986C333.896 73.5687 315.246 55.9582 292.247 46.6924C269.248 37.4266 243.598 37.1893 220.432 46.0279C197.265 54.8666 178.292 72.1291 167.31 94.3596C156.328 116.59 154.148 142.148 161.206 165.918C168.264 189.687 184.039 209.914 205.373 222.549C226.708 235.184 252.027 239.295 276.263 234.058C300.499 228.822 321.863 214.625 336.078 194.309C337.085 192.865 338.602 191.858 340.323 191.491C342.045 191.124 343.841 191.424 345.349 192.332C350.527 195.41 355.729 198.438 360.954 201.413C371.397 207.365 381.919 213.167 392.52 218.818C397.812 221.683 403.176 224.442 408.444 227.248C413.713 230.054 419.1 232.789 424.464 235.536C429.827 238.283 435.12 240.971 440.554 243.623L448.617 247.625C450.034 248.337 451.619 248.648 453.199 248.525C455.351 248.372 457.427 247.667 459.226 246.476C461.371 245.159 463.1 243.261 464.213 241.002C465.325 238.744 465.776 236.217 465.513 233.713ZM221.171 207.523C207.407 200.731 195.966 190.01 188.296 176.716C180.625 163.422 177.069 148.152 178.078 132.836C179.086 117.521 184.613 102.849 193.961 90.6752C203.308 78.5015 216.056 69.3731 230.591 64.4446C245.127 59.5161 260.798 59.0087 275.621 62.9867C290.445 66.9646 303.757 75.2492 313.872 86.7928C323.987 98.3363 330.452 112.62 332.449 127.838C334.446 143.056 331.885 158.524 325.091 172.287C320.581 181.424 314.316 189.584 306.653 196.3C298.99 203.016 290.079 208.157 280.429 211.429C270.779 214.701 260.579 216.04 250.411 215.37C240.244 214.7 230.308 212.033 221.171 207.523Z" fill="#407BFF"/>
<path d="M406.337 114.342C406.337 115.041 405.97 115.609 405.508 115.609C405.046 115.609 404.679 115.041 404.679 114.342C404.679 113.643 405.046 113.063 405.508 113.063C405.97 113.063 406.337 113.632 406.337 114.342Z" fill="#263238"/>
<path d="M406.029 115.609C405.197 117.754 404.073 119.774 402.69 121.612C403.169 121.954 403.717 122.188 404.296 122.297C404.875 122.405 405.47 122.385 406.041 122.239L406.029 115.609Z" fill="#630F0F"/>
<path d="M408.823 110.435C408.909 110.432 408.992 110.403 409.061 110.352C409.13 110.3 409.181 110.228 409.207 110.146C409.233 110.064 409.233 109.976 409.206 109.894C409.18 109.812 409.129 109.74 409.06 109.689C408.537 109.297 407.928 109.034 407.284 108.923C406.64 108.812 405.979 108.855 405.354 109.05C405.298 109.065 405.246 109.092 405.201 109.128C405.156 109.165 405.12 109.21 405.094 109.262C405.067 109.314 405.052 109.37 405.049 109.428C405.046 109.486 405.056 109.544 405.076 109.598C405.097 109.652 405.129 109.701 405.17 109.742C405.211 109.783 405.26 109.815 405.314 109.836C405.368 109.857 405.426 109.866 405.484 109.863C405.542 109.86 405.599 109.845 405.65 109.819C406.147 109.671 406.672 109.642 407.182 109.735C407.692 109.828 408.173 110.039 408.587 110.352C408.653 110.407 408.737 110.436 408.823 110.435Z" fill="#263238"/>
<path d="M430.289 119.623C429.034 125.992 427.791 137.655 432.243 141.894C432.243 141.894 430.502 148.346 418.686 148.346C405.662 148.346 412.47 141.894 412.47 141.894C419.574 140.2 419.385 134.932 418.142 130.054L430.289 119.623Z" fill="#7F3E3B"/>
<path d="M434.528 137.904C435.511 138.223 434.232 144.072 434.232 144.072C434.232 144.072 432.61 148.157 412.458 146.736C410.907 146.618 411.499 141.006 412.979 140.189C417.751 137.584 431.355 136.862 434.528 137.904Z" fill="#263238"/>
<path d="M475.459 382.53C476.548 382.423 478.135 380.422 478.584 379.688C478.604 379.656 478.615 379.619 478.615 379.582C478.615 379.544 478.604 379.507 478.584 379.475C478.565 379.44 478.535 379.412 478.499 379.395C478.463 379.378 478.422 379.373 478.383 379.381C478.265 379.381 475.4 379.925 474.701 381.038C474.627 381.155 474.579 381.286 474.558 381.422C474.538 381.559 474.546 381.698 474.583 381.831C474.736 382.352 475.032 382.494 475.269 382.53H475.459ZM477.957 379.89C477.187 380.955 475.921 382.198 475.317 382.116C475.257 382.116 475.08 382.116 474.973 381.713C474.95 381.636 474.944 381.554 474.957 381.474C474.969 381.394 474.999 381.318 475.044 381.251C475.86 380.521 476.873 380.048 477.957 379.89Z" fill="#407BFF"/>
<path d="M477.839 379.889C478.05 379.871 478.26 379.836 478.466 379.783C478.501 379.772 478.533 379.752 478.557 379.725C478.582 379.698 478.6 379.665 478.608 379.629C478.615 379.592 478.612 379.554 478.6 379.519C478.587 379.483 478.566 379.452 478.537 379.428C478.466 379.357 476.548 377.723 475.246 377.853C475.089 377.863 474.936 377.906 474.798 377.98C474.659 378.053 474.537 378.155 474.441 378.279C474.329 378.387 474.26 378.53 474.244 378.684C474.229 378.838 474.269 378.993 474.358 379.12C474.784 379.795 476.655 380.008 477.839 379.889ZM477.933 379.475C476.749 379.617 475.021 379.38 474.689 378.895C474.689 378.895 474.595 378.741 474.76 378.528C474.827 378.45 474.908 378.385 475 378.339C475.091 378.292 475.191 378.264 475.293 378.256C476.275 378.391 477.194 378.816 477.933 379.475Z" fill="#407BFF"/>
<path d="M394.059 413.669C394.956 413.666 395.851 413.587 396.735 413.432C396.774 413.421 396.81 413.4 396.84 413.371C396.869 413.342 396.89 413.306 396.9 413.266C396.908 413.224 396.901 413.181 396.882 413.142C396.863 413.104 396.832 413.073 396.794 413.053C396.664 412.971 393.633 411.242 392.176 411.633C391.904 411.702 391.67 411.877 391.525 412.118C391.432 412.25 391.383 412.407 391.383 412.568C391.383 412.729 391.432 412.886 391.525 413.018C391.904 413.539 392.946 413.669 394.059 413.669ZM396.072 413.124C394.45 413.349 392.247 413.338 391.845 412.781C391.786 412.71 391.738 412.58 391.845 412.319C391.888 412.246 391.946 412.183 392.016 412.134C392.085 412.085 392.164 412.052 392.247 412.035C393.183 411.787 395.006 412.58 396.072 413.124Z" fill="#407BFF"/>
<path d="M396.64 413.432C396.683 413.444 396.728 413.444 396.77 413.432C396.798 413.409 396.819 413.38 396.834 413.347C396.848 413.314 396.855 413.279 396.853 413.243C396.853 413.148 396.605 410.804 395.503 409.892C395.34 409.756 395.151 409.655 394.948 409.594C394.744 409.532 394.531 409.513 394.319 409.537C393.751 409.596 393.597 409.88 393.55 410.117C393.396 411.1 395.48 412.982 396.522 413.456L396.64 413.432ZM394.521 409.88C394.785 409.888 395.039 409.984 395.243 410.153C395.9 410.904 396.313 411.837 396.427 412.828C395.349 412.189 393.941 410.709 394.059 410.117C394.059 410.117 394.059 409.928 394.461 409.892L394.521 409.88Z" fill="#407BFF"/>
<path d="M406.254 413.231H397.564L396.688 393.079H405.39L406.254 413.231Z" fill="#7F3E3B"/>
<path d="M486.186 373.318L479.402 378.753L462.139 366.771L468.935 361.336L486.186 373.318Z" fill="#7F3E3B"/>
<path d="M478.158 378.41L485.096 371.531C485.221 371.411 485.382 371.336 485.554 371.319C485.725 371.302 485.898 371.343 486.044 371.436L492.71 375.722C492.871 375.826 493.007 375.966 493.106 376.131C493.206 376.296 493.266 376.481 493.284 376.673C493.301 376.865 493.274 377.058 493.205 377.238C493.137 377.418 493.028 377.579 492.887 377.711C490.424 380.079 489.11 381.097 486.055 384.116C484.185 385.987 479.603 391.552 477.01 394.121C474.417 396.691 471.528 394.465 472.368 393.174C476.098 387.42 477.365 382.672 477.531 379.783C477.566 379.264 477.789 378.776 478.158 378.41Z" fill="#263238"/>
<path d="M397.611 412.224H407.083C407.255 412.224 407.422 412.282 407.555 412.39C407.689 412.498 407.781 412.648 407.817 412.816L409.534 420.548C409.577 420.734 409.577 420.927 409.535 421.113C409.492 421.299 409.407 421.473 409.288 421.621C409.168 421.769 409.016 421.888 408.843 421.969C408.67 422.05 408.481 422.09 408.29 422.087C404.857 422.087 399.908 421.839 395.598 421.839C390.566 421.839 386.221 422.111 380.313 422.111C376.761 422.111 375.754 418.5 377.246 418.168C384.054 416.688 389.607 416.522 395.48 412.899C396.113 412.48 396.851 412.246 397.611 412.224Z" fill="#263238"/>
<path d="M449.387 144.498C456.929 148.05 460.043 172.393 460.043 172.393L442.698 179.201C440.005 172.61 437.824 165.822 436.174 158.896C433.747 147.908 441.632 140.804 449.387 144.498Z" fill="#407BFF"/>
<path opacity="0.3" d="M449.387 144.498C456.929 148.05 460.043 172.393 460.043 172.393L442.698 179.201C440.005 172.61 437.824 165.822 436.174 158.896C433.747 147.908 441.632 140.804 449.387 144.498Z" fill="white"/>
<path opacity="0.2" d="M438.151 151.638C437.56 151.351 436.941 151.125 436.304 150.963C435.612 153.559 435.588 156.288 436.233 158.896C437.876 165.822 440.053 172.611 442.745 179.201L448.464 176.964C447.41 170.606 444.178 154.527 438.151 151.638Z" fill="black"/>
<path d="M399.091 144.309C399.091 144.309 389.832 154.764 398.57 219.493H445.101C445.421 212.389 440.933 177.508 447.824 143.859C442.678 142.869 437.473 142.213 432.243 141.894C425.657 141.515 419.055 141.515 412.47 141.894C407.954 142.349 403.481 143.156 399.091 144.309Z" fill="#407BFF"/>
<path opacity="0.3" d="M399.091 144.309C399.091 144.309 389.832 154.764 398.57 219.493H445.101C445.421 212.389 440.933 177.508 447.824 143.859C442.678 142.869 437.473 142.213 432.243 141.894C425.657 141.515 419.055 141.515 412.47 141.894C407.954 142.349 403.481 143.156 399.091 144.309Z" fill="white"/>
<path opacity="0.2" d="M408.48 158.186C406.372 151.863 401.305 149.838 396.143 153.592C395.101 159.725 394.367 169.611 395.207 185.287L404.288 185.204C404.288 185.204 411.594 167.598 408.48 158.186Z" fill="black"/>
<path d="M406.775 155.593C406.396 158.766 405.875 161.643 405.295 164.638C404.715 167.634 404.04 170.558 403.27 173.506C401.751 179.532 399.682 185.406 397.09 191.053C396.415 192.51 395.634 193.942 394.805 195.375C394.378 196.097 393.952 196.819 393.467 197.53C392.837 198.517 392.094 199.427 391.253 200.241C389.619 201.756 387.682 202.906 385.569 203.616C383.854 204.216 382.08 204.633 380.277 204.859C377.059 205.258 373.807 205.297 370.58 204.977C369.001 204.851 367.462 204.65 365.962 204.373C364.423 204.101 362.967 203.817 361.38 203.402L362.15 196.914C367.554 196.687 372.919 195.894 378.158 194.546C379.223 194.231 380.258 193.819 381.248 193.315C381.898 193.017 382.467 192.566 382.905 192.001C382.811 192.083 383.675 190.651 384.184 189.633C384.693 188.614 385.262 187.265 385.747 186.081C386.742 183.641 387.594 181.06 388.376 178.42C389.157 175.78 389.844 173.092 390.483 170.369C391.122 167.646 391.667 164.899 392.259 162.081C392.851 159.263 393.277 156.469 393.704 153.852L406.775 155.593Z" fill="#7F3E3B"/>
<path d="M410.718 150.691C413.169 158.635 403.223 182.315 403.223 182.315L382.278 177.047C383.56 169.562 385.718 162.254 388.707 155.273C395.456 140.497 407.77 141.112 410.718 150.691Z" fill="#407BFF"/>
<path opacity="0.3" d="M410.718 150.691C413.169 158.635 403.223 182.315 403.223 182.315L382.278 177.047C383.56 169.562 385.718 162.254 388.707 155.273C395.456 140.497 407.77 141.112 410.718 150.691Z" fill="white"/>
<path d="M362.446 196.95L352.595 196.701L357.331 206.943C357.331 206.943 361.333 207.475 364.625 202.064L368.094 197.932L364.104 197.127C363.557 197.021 363.003 196.961 362.446 196.95Z" fill="#7F3E3B"/>
<path d="M346.379 198.607L352.027 207.096L357.343 206.943L352.595 196.701L346.379 198.607Z" fill="#7F3E3B"/>
<path opacity="0.2" d="M396.699 393.091L397.137 403.475H405.84L405.39 393.091H396.699Z" fill="black"/>
<path opacity="0.2" d="M468.935 361.336L462.139 366.771L471.043 372.951L477.839 367.517L468.935 361.336Z" fill="black"/>
<path d="M429.792 112.803C429.271 121.422 429.413 126.49 425.056 130.918C418.52 137.572 407.876 133.641 405.816 124.998C403.957 117.255 405.129 104.467 413.559 101.022C415.418 100.253 417.443 99.9734 419.441 100.21C421.439 100.446 423.343 101.191 424.971 102.372C426.599 103.554 427.897 105.133 428.741 106.959C429.585 108.785 429.947 110.797 429.792 112.803Z" fill="#7F3E3B"/>
<path d="M436.754 104.799C436.754 104.799 441.289 106.149 439.868 111.323C437.725 119.184 432.681 128.23 426.169 128.799C418.059 129.521 414.4 121.15 413.335 112.495C408.48 109.168 404.881 106.054 406.041 102.597C407.817 97.2686 414.258 92.6747 424.512 93.8587C434.765 95.0427 439.868 101.673 436.754 104.799Z" fill="#263238"/>
<path d="M418.272 114.271C418.114 116.409 417.257 118.435 415.833 120.037C413.938 122.121 411.949 120.818 411.618 118.285C411.322 115.988 411.937 112.14 414.258 110.991C416.579 109.843 418.426 111.69 418.272 114.271Z" fill="#7F3E3B"/>
<path d="M415.075 219.493C415.075 219.493 412.139 278.125 417.857 302.965C426.915 342.298 466.733 373.816 466.733 373.816L479.52 363.574C479.52 363.574 446.759 339.195 443.811 306.446C441.17 277.035 445.078 243.256 445.078 219.493H415.075Z" fill="#407BFF"/>
<path opacity="0.2" d="M415.075 219.493C415.075 219.493 412.139 278.125 417.857 302.965C426.915 342.298 466.733 373.816 466.733 373.816L479.52 363.574C479.52 363.574 446.759 339.195 443.811 306.446C441.17 277.035 445.078 243.256 445.078 219.493H415.075Z" fill="black"/>
<path opacity="0.2" d="M419.444 236.862C418.26 234.577 415.951 241.385 414.341 250.123C414.341 262.176 414.554 275.887 415.608 287.502C423.647 272.643 421.942 241.598 419.444 236.862Z" fill="black"/>
<path d="M460.931 371.294L465.786 375.059L480.55 363.088L476.122 359.075L460.931 371.294Z" fill="#2C6BDB"/>
<path opacity="0.4" d="M460.931 371.294L465.786 375.059L480.55 363.088L476.122 359.075L460.931 371.294Z" fill="#FAFAFA"/>
<path d="M398.57 219.493C398.57 219.493 385.475 275.023 384.551 301.544C383.521 331.298 393.893 401.462 393.893 401.462H408.634C408.634 401.462 410.446 330.754 411.109 303.652C411.819 274.111 429.153 219.493 429.153 219.493H398.57Z" fill="#407BFF"/>
<path opacity="0.2" d="M398.57 219.493C398.57 219.493 385.475 275.023 384.551 301.544C383.521 331.298 393.893 401.462 393.893 401.462H408.634C408.634 401.462 410.446 330.754 411.109 303.652C411.819 274.111 429.153 219.493 429.153 219.493H398.57Z" fill="black"/>
<path d="M391.063 395.589C390.992 395.589 391.892 401.711 391.892 401.711H409.818L410.303 396.252L391.063 395.589Z" fill="#2C6BDB"/>
<path opacity="0.4" d="M391.063 395.589C390.992 395.589 391.892 401.711 391.892 401.711H409.818L410.303 396.252L391.063 395.589Z" fill="#FAFAFA"/>
</svg>
