<svg width="18" height="18" viewBox="0 0 18 18" fill="none" xmlns="http://www.w3.org/2000/svg">
<g clip-path="url(#clip0_1_163)">
<path d="M15.75 8.3325V5.25C15.75 4.85217 15.592 4.47064 15.3107 4.18934C15.0294 3.90803 14.6478 3.75 14.25 3.75H11.25V2.25C11.25 1.85218 11.092 1.47064 10.8107 1.18934C10.5294 0.908035 10.1478 0.75 9.75 0.75H6.75C6.35218 0.75 5.97064 0.908035 5.68934 1.18934C5.40804 1.47064 5.25 1.85218 5.25 2.25V3.75H2.25C1.85218 3.75 1.47064 3.90803 1.18934 4.18934C0.908035 4.47064 0.75 4.85217 0.75 5.25V13.5C0.75 13.8978 0.908035 14.2794 1.18934 14.5607C1.47064 14.842 1.85218 15 2.25 15H7.695C8.10724 15.6021 8.64046 16.1116 9.26064 16.4961C9.88082 16.8805 10.5743 17.1315 11.2969 17.233C12.0195 17.3344 12.7553 17.2841 13.4574 17.0853C14.1595 16.8865 14.8124 16.5435 15.3745 16.0782C15.9366 15.6129 16.3955 15.0356 16.722 14.383C17.0485 13.7305 17.2354 13.017 17.2707 12.2882C17.306 11.5594 17.1891 10.8312 16.9272 10.1501C16.6654 9.46899 16.2645 8.84997 15.75 8.3325ZM6.75 2.25H9.75V3.75H6.75M14.25 15C13.6009 15.4868 12.8114 15.75 12 15.75C11.1886 15.75 10.3991 15.4868 9.75 15C9.12035 14.5278 8.65525 13.8694 8.42057 13.1181C8.1859 12.3669 8.19355 11.5608 8.44244 10.8141C8.69133 10.0675 9.16884 9.41804 9.80734 8.95784C10.4458 8.49764 11.2129 8.25 12 8.25C12.7871 8.25 13.5542 8.49764 14.1927 8.95784C14.8312 9.41804 15.3087 10.0675 15.5576 10.8141C15.8065 11.5608 15.8141 12.3669 15.5794 13.1181C15.3448 13.8694 14.8796 14.5278 14.25 15ZM11.25 9.75H12.375V11.865L14.205 12.9225L13.6425 13.8975L11.25 12.5175V9.75Z" fill="#A5A5A5"/>
</g>
<defs>
<clipPath id="clip0_1_163">
<rect width="18" height="18" fill="white"/>
</clipPath>
</defs>
</svg>
