<svg width="17" height="17" viewBox="0 0 17 17" fill="none" xmlns="http://www.w3.org/2000/svg">
<path d="M14.875 15.9375V4.25H11.6875V1.0625H2.125V15.9375H0V17H7.4375V13.8125H9.5625V17H17V15.9375H14.875ZM6.375 11.6875H4.25V9.5625H6.375V11.6875ZM6.375 8.5H4.25V6.375H6.375V8.5ZM6.375 5.3125H4.25V3.1875H6.375V5.3125ZM9.5625 11.6875H7.4375V9.5625H9.5625V11.6875ZM9.5625 8.5H7.4375V6.375H9.5625V8.5ZM9.5625 5.3125H7.4375V3.1875H9.5625V5.3125ZM13.8125 11.6875H11.6875V9.5625H13.8125V11.6875ZM13.8125 8.5H11.6875V6.375H13.8125V8.5Z" fill="#A5A5A5"/>
</svg>
